<?xml version="1.0" encoding="UTF-8"?>
<!DOCTYPE svg PUBLIC "-//W3C//DTD SVG 1.1//EN" "http://www.w3.org/Graphics/SVG/1.1/DTD/svg11.dtd">
<!-- Creator: CorelDRAW X7 -->
<svg xmlns="http://www.w3.org/2000/svg" xml:space="preserve" width="215.9mm" height="192mm" version="1.1" style="shape-rendering:geometricPrecision; text-rendering:geometricPrecision; image-rendering:optimizeQuality; fill-rule:evenodd; clip-rule:evenodd"
viewBox="0 0 215900 192000"
 xmlns:xlink="http://www.w3.org/1999/xlink">
 <defs>
  <style type="text/css">
   <![CDATA[
    .fil0 {fill:black}
    .fil1 {fill:black;fill-rule:nonzero}
   ]]>
  </style>
 </defs>
 <g id="Слой_x0020_1">
  <metadata id="CorelCorpID_0Corel-Layer"/>
  <g id="_2407192229232">
   <path class="fil0" d="M114942 28509c-216,54 -1320,243 -2425,404 -1104,189 -2747,593 -3636,943 -1212,458 -2720,673 -6060,916 -10128,727 -28821,3070 -36767,4579 -2208,431 -4390,835 -4848,916 -539,107 -1104,-54 -1724,-431 -862,-512 -1050,-539 -2828,-216 -2128,350 -3771,1024 -6518,2694 -1024,619 -2532,1320 -3340,1535 -7353,2047 -15757,4633 -18962,5872 -1509,565 -2290,700 -4310,700 -3394,0 -4552,593 -8134,4148 -4256,4256 -6222,7973 -9912,18747 -2344,6788 -3017,9589 -3664,15353 -296,2586 -646,5360 -808,6141 -808,4337 -942,18370 -242,26585 646,7649 2559,15972 5549,24241 2585,7138 5602,10667 10908,12687 1078,404 3313,1266 4929,1912 4337,1751 10074,3663 16027,5360 2882,808 6033,1724 7003,1994 1185,350 2208,915 3205,1723 808,674 2209,1482 3098,1832 1481,566 2020,619 5575,566 3690,-81 4148,-27 7730,862 4930,1212 8054,1777 17966,3232 10586,1562 14276,1966 20552,2262 3528,189 5414,377 5925,647 404,215 1078,565 1509,808 1912,1023 5306,781 7972,-593 1455,-754 1563,-754 7408,-916 7838,-215 16322,-1050 24106,-2370 7650,-1293 8216,-1427 10774,-2316 1724,-566 2263,-647 3637,-485 889,108 2235,188 2963,162 1750,-27 4767,-943 5360,-1617 673,-754 4040,-2101 6006,-2424 2936,-458 13091,-3609 17104,-5306 1158,-485 2047,-646 3528,-646 1751,0 2128,-108 3286,-835 1482,-943 4714,-3933 4714,-4391 0,-161 566,-1131 1212,-2155 1455,-2235 2209,-4498 3475,-10423 1454,-6842 1939,-10774 2693,-21791 862,-12363 808,-20120 -242,-35823 -512,-7542 -781,-9751 -1482,-12067 -296,-997 -1077,-4768 -1750,-8404 -1886,-10316 -2452,-12175 -3987,-13010 -485,-269 -1293,-1077 -1804,-1831 -1024,-1536 -2182,-2586 -3206,-2990 -377,-135 -1885,-269 -3313,-243 -2155,27 -2774,-80 -3501,-511 -2182,-1293 -11448,-4364 -18801,-6222 -3313,-862 -4363,-1239 -5118,-1859 -1750,-1508 -2936,-1966 -5252,-2101 -1751,-81 -2424,0 -3582,458l-1455 566 -1912 -512c-2586,-727 -6465,-1428 -14734,-2694 -7892,-1212 -9050,-1319 -18127,-1643l-6707 -215 -1373 -862c-1293,-808 -2721,-1185 -3691,-943l1 0zm1077 2155c0,216 -646,889 -1455,1482 -2370,1804 -3313,3501 -5737,10370 -942,2666 -2262,7030 -2909,9696 -1508,6034 -2128,8323 -2639,9697 -862,2289 -2990,20336 -3448,29144 -350,6868 -162,31756 269,35096 835,6410 3098,19609 3798,22275 3286,12336 5387,17265 9589,22545 1266,1562 2209,2963 2128,3124 -81,135 -862,270 -1724,270 -1724,0 -2882,-647 -4525,-2505 -4067,-4633 -7003,-11744 -9751,-23569 -1750,-7461 -2451,-12659 -3393,-24672 -862,-10936 -997,-31083 -270,-39083 377,-4202 1536,-13871 1913,-15892 215,-1185 754,-4255 1185,-6814 1320,-7703 2208,-10747 5575,-19043 3690,-9131 4337,-10047 8189,-11582 2504,-1024 3205,-1132 3205,-539l0 0zm9562 1751c13117,754 33130,3582 35015,4956 593,431 405,1347 -430,2397 -485,620 -755,727 -1994,727 -808,0 -4282,-484 -7730,-1077 -18208,-3097 -31622,-4336 -35204,-3286 -620,188 -1212,296 -1293,215 -323,-323 269,-1535 1454,-2936l1266 -1508 2021 135c1131,54 4228,242 6895,377l0 0zm-19070 727c242,620 -754,2263 -1724,2828 -566,351 -2316,647 -5764,1024 -9589,1050 -19716,2532 -34046,4983 -7461,1266 -7973,1320 -8592,862 -485,-350 -485,-404 269,-1778 1024,-1912 1643,-2343 3663,-2559 943,-107 2479,-377 3448,-592 4795,-1105 21844,-3609 28955,-4283 11636,-1077 13549,-1131 13791,-485l0 0zm62004 3556c593,377 108,1212 -1993,3501 -2182,2370 -3097,4229 -5118,10370 -1643,4848 -4444,15703 -4444,17050 0,485 -350,3232 -808,6087 -1239,7946 -1616,12983 -1804,22949 -270,16053 646,28255 3016,39729 2505,12094 4094,17185 7273,23434 1535,2962 2801,4444 4660,5440 1104,593 1373,1240 700,1751 -727,566 -4148,297 -5253,-377 -996,-646 -2747,-2963 -3770,-4983 -1051,-2101 -3529,-8646 -4526,-12013 -2639,-8888 -4821,-23945 -5440,-37493 -431,-9724 0,-27232 835,-32996 565,-3959 1643,-11286 2020,-13737 1131,-7218 4794,-18693 8026,-25130 1185,-2344 1616,-2963 2371,-3340 996,-512 3609,-647 4255,-243l0 1zm-39298 1831c2317,1078 4741,1455 5818,862 754,-404 4633,54 15272,1805 3071,512 5953,915 6357,915 431,0 970,81 1212,162 673,269 512,1509 -377,2721 -431,592 -997,1858 -1239,2801 -539,2101 -700,2316 -1939,2532 -1078,161 -7758,-377 -14869,-1212 -5252,-620 -10477,-970 -19123,-1347 -8027,-350 -9697,-485 -10424,-970l-593 -377 1212 -3555c1428,-4283 1940,-4929 4310,-5226 2424,-296 6330,27 7757,647l1212 538 997 -781c1158,-915 1481,-889 4417,485l0 0zm-73532 27c0,458 -620,1805 -1536,3313 -2289,3798 -3043,5603 -5845,13979 -2720,8216 -3663,11906 -4336,17239 -243,1858 -647,4767 -943,6464 -1050,6357 -1643,15434 -1670,25185 -27,11932 0,13144 431,17103 242,2155 620,6330 835,9293 512,6841 1724,12148 4310,18612 942,2397 1858,4956 2020,5656 458,2047 2612,5845 4498,7946 943,1024 1697,2047 1697,2263 0,754 -1913,484 -3502,-485 -1508,-889 -2586,-2290 -5171,-6734 -1051,-1832 -4876,-13117 -5199,-15353 -80,-700 -350,-1697 -538,-2182 -1132,-2693 -2829,-13952 -2263,-15002 135,-243 539,-539 916,-620 916,-242 727,-727 -431,-1104l-916 -323 -162 -3206c-107,-1751 -188,-9265 -215,-16673 -27,-11905 27,-14033 512,-18315 1239,-11044 2639,-17535 6006,-28147 1132,-3475 2236,-7057 2478,-7919 916,-3260 3933,-8377 5899,-9993 1104,-889 2505,-1751 2936,-1751 108,0 189,350 189,754l0 0zm48159 512c54,323 -404,1724 -1023,3071 -593,1346 -1185,2828 -1266,3313 -243,1266 -566,1508 -1939,1508 -1401,0 -3260,-458 -3260,-781 0,-270 943,-566 1940,-566 377,0 889,-81 1131,-161 646,-243 512,-916 -162,-916 -915,0 -7461,969 -10854,1616 -1617,296 -3421,619 -3960,700 -1293,162 -2532,1185 -2289,1832 161,431 458,458 3232,242 4498,-323 13333,-242 13710,135 242,242 242,646 27,1589 -1482,6491 -2344,10208 -2397,10289 -54,54 -4983,189 -10990,323 -9266,189 -11986,351 -18262,1051 -4040,458 -8377,997 -9643,1212 -2774,485 -8269,808 -9265,566 -404,-108 -701,-351 -701,-620 0,-835 2209,-7084 2748,-7757 296,-377 996,-916 1562,-1212 1212,-620 14060,-3232 19797,-4041 6438,-888 7515,-1077 8162,-1508 2235,-1454 -3125,-1401 -11529,135 -4875,889 -11097,1777 -14329,2047l-2101 188 0 -646c0,-889 1428,-3717 2263,-4498 565,-512 1804,-835 7757,-1940 13575,-2532 19366,-3313 27554,-3744 5495,-296 5818,-350 6869,-1131 916,-673 2666,-997 5118,-943 1858,54 2020,108 2100,647l0 0zm73937 1670c5576,1508 16161,4902 17777,5710 1024,539 1239,970 674,1535 -566,566 -2263,351 -5145,-592 -1509,-512 -3852,-1132 -5172,-1401 -2101,-377 -16376,-3663 -17696,-4040 -781,-242 -566,-1077 512,-1993 916,-808 1077,-862 2478,-728 835,81 3798,755 6572,1509zm-130231 2128c162,1158 -1751,2612 -4471,3447 -1293,377 -4013,1239 -6034,1886 -2020,646 -3986,1185 -4363,1185 -377,0 -2801,862 -5387,1912 -5145,2047 -6518,2424 -6761,1805 -431,-1131 1509,-3609 3071,-3879 539,-107 1966,-592 3178,-1077 3125,-1239 9401,-3259 11609,-3744 1024,-216 2990,-727 4391,-1185 4148,-1293 4633,-1347 4767,-350l0 0zm123794 1670c2127,458 4929,1104 6195,1481 3340,970 4336,1158 7353,1455 2047,188 3178,458 4579,1077 1023,431 2397,916 3017,1077 646,135 1292,378 1454,539 377,377 -162,1966 -1724,5333 -889,1940 -1104,2236 -1697,2236 -1508,0 -8565,-1131 -11609,-1885 -3905,-943 -7730,-1697 -12390,-2452 -1912,-296 -3609,-646 -3717,-754 -377,-377 2101,-7488 2936,-8430 620,-647 1024,-620 5603,323l0 0zm30355 2693c270,162 512,377 512,512 0,135 -646,1131 -1454,2236 -1994,2693 -3125,5063 -4445,9184 -1616,5118 -2855,11098 -3824,18505 -782,5952 -862,7488 -970,15811 -269,18989 943,36524 3017,43177 350,1104 969,3232 1373,4713 1643,6168 2829,8835 5226,11798 889,1104 1616,2181 1616,2397 0,862 -3394,1670 -4229,997 -242,-216 -1077,-1724 -1858,-3367 -4148,-8700 -7057,-18343 -7677,-25427 -162,-1697 -512,-4606 -808,-6464 -1320,-8566 -1374,-27582 -135,-38248 1886,-15865 3286,-21952 6761,-28955 2936,-5953 4929,-7919 6895,-6869l0 0zm-156896 1805c-377,2101 -1293,4390 -1966,4929 -378,296 -1105,592 -1670,673 -539,81 -2236,539 -3798,997 -1563,458 -3610,996 -4525,1212 -943,188 -2398,646 -3233,997 -1777,754 -11905,4174 -13171,4471 -1239,296 -1616,-216 -996,-1401 835,-1643 3313,-4767 4067,-5144 431,-216 1293,-458 1966,-566 673,-108 2020,-620 3044,-1131 996,-512 2505,-1051 3313,-1212 835,-162 2666,-647 4121,-1078 1427,-458 3232,-943 3986,-1077 781,-162 2209,-647 3179,-1105 1966,-915 3905,-1508 5090,-1535 727,-27 754,0 593,970zm82259 619c5145,404 16027,1563 17724,1913 1239,242 1481,404 1723,1077 216,593 512,835 1374,1077 620,162 1535,512 2020,808 1051,593 1940,674 1940,135 0,-323 -916,-781 -3421,-1643 -539,-188 -404,-592 269,-781 323,-81 1509,-162 2613,-162 2478,0 3232,404 3205,1697 -54,1428 -889,4310 -1320,4525 -727,351 -4121,835 -7541,1051 -3987,269 -3798,215 -2963,592 377,162 2747,324 5252,378l4579 107 0 862 0 889 -2155 81c-1185,54 -6087,-108 -10909,-323 -4821,-243 -14113,-566 -20659,-701 -6572,-161 -12255,-404 -12632,-538 -539,-216 -674,-431 -593,-1024 81,-646 189,-727 1293,-835 673,-54 3124,54 5441,242 3474,270 4336,270 4660,0 377,-323 377,-404 27,-754 -270,-296 -1428,-458 -4121,-619 -5414,-323 -6276,-458 -6276,-1051 0,-808 512,-3286 1131,-5333l566 -1939 7568 0c4175,0 9212,135 11205,269l0 0zm-107686 835c-27,350 -996,2263 -2101,4202 -3367,5899 -6357,13548 -6895,17723 -162,1186 -566,3179 -889,4445 -808,3016 -2451,11663 -3044,15891 -646,4929 -646,22895 27,27878 970,7084 3017,15973 4606,20040 512,1266 1024,2612 1131,2990 270,1050 1105,2612 2721,5171 1427,2290 1589,2909 727,2909 -1023,0 -6303,-6303 -6303,-7488 0,-215 -485,-1589 -1077,-3097 -566,-1509 -1347,-3771 -1697,-5037 -754,-2613 -2667,-11340 -3286,-14949 -1885,-11151 -862,-32645 2155,-45089 727,-2936 4363,-12929 6033,-16592 1455,-3098 2748,-5010 5253,-7623 2154,-2236 2774,-2559 2639,-1374zm186202 1616c1454,1347 1966,2802 3582,10074 3556,16026 5118,32699 4418,47460 -324,6841 -1886,23352 -2640,27689 -700,4175 -2236,10101 -3044,11824 -1023,2128 -2478,3825 -3070,3583 -862,-324 -808,-1401 215,-3717 1940,-4418 3717,-12875 4202,-20040 135,-2236 404,-4956 566,-6060 431,-2936 619,-25319 215,-30168 -943,-12147 -4148,-32376 -5952,-37709 -1401,-4094 -862,-5117 1508,-2936l0 0zm-3421 2936c916,1859 2047,7542 3421,16969 1805,12633 1993,14949 2343,27824 351,13037 27,26962 -727,32888 -1347,10424 -4121,18854 -5818,17777 -1400,-835 -4686,-12255 -6141,-21117 -1589,-9831 -1966,-16026 -1993,-32591l-27 -11986 1266 -8162c2074,-13360 4929,-23218 6626,-22895 242,54 700,620 1050,1293l0 0zm-33211 297c1940,323 5253,969 7408,1481 8269,1993 13467,3313 13736,3475 404,242 324,862 -269,1993 -269,565 -727,2101 -970,3394 -296,1454 -619,2397 -862,2505 -215,80 -2047,-135 -4067,-458 -4848,-754 -10935,-1509 -16726,-2047 -2586,-243 -5199,-539 -5764,-674 -1940,-431 -1940,-484 -862,-5387 511,-2397 1104,-4552 1293,-4767 377,-458 1346,-404 7083,485l0 0zm-126837 1723c243,620 -2801,9778 -3367,10074 -242,135 -1535,377 -2855,512 -1346,162 -3474,593 -4794,970 -1293,377 -3394,862 -4714,1104 -1293,242 -3555,781 -5037,1185 -4902,1374 -8726,2236 -9050,2047 -188,-135 -242,-592 -161,-1185 161,-1374 2020,-5549 2774,-6249 646,-592 7084,-3178 10343,-4121 1131,-323 2936,-970 4040,-1427 2344,-970 6115,-2101 9401,-2775 2882,-619 3232,-646 3420,-134l0 -1zm51796 5980l2505 162 -134 1104c-135,1293 -916,7730 -1212,9858l-189 1482 -1185 188c-1939,323 -10801,970 -17535,1293 -8915,404 -18639,1051 -22760,1508 -1912,216 -4498,458 -5710,566l-2236 162 0 -1724c0,-943 297,-3852 674,-6438 377,-2585 673,-4713 673,-4740 0,-27 1293,-135 2909,-216 4040,-242 7515,-646 10963,-1239 2908,-484 8807,-1185 12794,-1508 1670,-135 7272,-350 16457,-593 835,-27 2640,27 3986,135l0 0zm39083 350c10801,458 16511,808 17562,1105 1400,350 1670,969 1131,2531 -593,1778 -1104,4741 -1347,7650l-188 2532 -4202 -189c-8565,-377 -21440,-673 -30194,-700 -9158,-27 -11609,-188 -12175,-754 -242,-243 -162,-1643 377,-6007 404,-3124 862,-5845 1024,-6033 161,-215 646,-431 1023,-512 1078,-188 19771,54 26989,377l0 0zm36766 4067c1643,135 4310,512 5926,782 1643,296 4714,781 6842,1077 3744,539 5414,1050 5414,1643 0,162 -189,916 -378,1670 -215,781 -538,2559 -700,3959 -323,2748 -565,3286 -1454,3098 -297,-81 -5711,-377 -12013,-674 -11798,-592 -14895,-861 -15569,-1400 -377,-323 -377,-458 189,-3178 134,-674 377,-2398 538,-3852 458,-4014 189,-3798 4579,-3583 2020,108 5010,297 6626,458l0 0zm-131173 2128c81,135 -108,1482 -431,3017 -296,1535 -781,4040 -1024,5602l-458 2829 -1750 54c-4095,161 -8970,727 -16485,1993 -8969,1508 -9077,1508 -8403,-243 215,-565 565,-1939 781,-3070 727,-3852 1346,-4418 6087,-5495 2667,-593 7273,-1751 15595,-3933 1751,-457 4202,-888 5468,-996 243,0 512,81 620,242zm54813 8754c1104,566 1319,1131 1077,2694 -108,727 -377,3851 -539,6895l-350 5549 -9858 188c-5414,108 -14033,296 -19151,431 -5118,135 -11932,269 -15191,269l-5872 0 134 -3178c108,-3205 620,-8000 943,-9212 189,-646 270,-673 3421,-862 1778,-80 4741,-350 6599,-592 5010,-620 12956,-1185 23838,-1670 5333,-216 10558,-512 11582,-620 1050,-134 2047,-242 2235,-269 189,0 701,162 1132,377l0 0zm30975 -135c14733,431 23703,1051 24861,1670 485,243 512,485 323,3529 -108,1805 -323,4741 -512,6518l-296 3232 -4983 162c-2747,81 -13306,135 -23487,135 -16404,-27 -18559,-81 -18936,-458 -377,-377 -377,-727 108,-3771 296,-1832 673,-4687 835,-6303 162,-1643 350,-3367 431,-3825l135 -862 3690 -80c2020,-54 4794,-108 6114,-162 1347,-27 6599,54 11717,215l0 0zm42153 2155c9454,512 19097,1347 19474,1751 189,189 -538,12444 -754,12794 -135,216 -1616,243 -5683,27 -3017,-161 -8593,-350 -12363,-431 -3771,-81 -7758,-215 -8808,-296l-1966 -162 0 -3690c27,-3555 565,-9670 942,-10289 135,-189 808,-242 1994,-135 969,81 4201,297 7164,431l0 0zm-130096 3286c-215,1024 -943,8458 -943,9885l0 1320 -4229 189c-7164,350 -22625,323 -22975,-27 -593,-593 808,-8027 1589,-8431 243,-134 4875,-916 10262,-1751 12040,-1831 10936,-1696 13953,-1750 2451,-27 2478,-27 2343,565l0 0zm49722 11825c2478,-54 5145,0 5899,108l1427 188 -188 7057c-108,3852 -270,7434 -350,7892l-135 889 -3609 0c-3583,0 -23461,-808 -33103,-1347 -5037,-296 -12525,-970 -12714,-1158 -242,-269 -188,-12309 54,-12525 162,-135 7084,-404 15488,-592 8377,-189 16673,-431 18450,-539 1778,-108 3475,-135 3771,-54 297,81 2559,135 5010,81l0 0zm61277 161l1132 135 188 1616c108,889 108,4202 0,7353 -162,4957 -269,5792 -646,5953 -916,377 -11582,620 -28686,647 -9805,27 -17858,-81 -17993,-216 -108,-108 -188,-3663 -161,-7892l80 -7649 3771 -162c4444,-215 40645,-27 42315,215l0 0zm31083 1186c2155,161 4579,377 5387,457l1482 189 -81 4714c-54,2585 -162,4902 -215,5171 -81,243 -404,485 -728,566 -969,242 -9993,1212 -17965,1939 -4068,350 -7973,727 -8647,835l-1266 162 -107 -6815c-81,-3959 -27,-6976 107,-7165 135,-188 755,-377 1374,-431 1832,-215 16404,54 20659,377l0 1zm-143671 80c485,351 512,808 592,6465l81 6087 -1023 -108c-566,-80 -2909,-215 -5199,-296 -2289,-81 -5629,-269 -7407,-431 -1778,-161 -5683,-485 -8700,-754 -3017,-269 -5603,-619 -5764,-781 -269,-269 -81,-3529 485,-8027l134 -1104 5576 -189c6761,-215 14464,-673 16484,-969 2424,-350 4175,-297 4741,107zm-15784 13360c4067,296 9239,566 11501,566 2936,27 4175,134 4391,377 377,458 888,8754 673,10720 -135,1077 -323,1616 -620,1751 -808,296 -19905,-2694 -23729,-3717 -3206,-889 -3233,-889 -3556,-4714 -161,-1777 -215,-3744 -108,-4390l162 -1132 1939 0c1078,0 5280,243 9347,539l0 0zm166216 1266c108,781 215,3071 269,5091l108 3690 -1454 485c-1859,646 -6142,1400 -12687,2262 -2882,377 -7003,943 -9104,1239 -5306,755 -4956,1185 -5575,-6518 -216,-2720 -297,-5010 -189,-5118 108,-107 2370,-377 5037,-619 7703,-673 17319,-1562 19528,-1778 1104,-108 2451,-188 2963,-161 915,27 942,53 1104,1427l0 0zm-128507 620c14680,808 20471,1050 29063,1239l7757 188 162 3933c81,2155 296,5090 485,6518 188,1428 242,2828 134,3097 -161,431 -700,458 -8323,297 -12578,-270 -27177,-1212 -37386,-2397l-5009 -566 -189 -3933c-108,-2154 -242,-5090 -350,-6491l-162 -2586 1993 81c1105,54 6411,350 11825,620zm92225 1670c351,1831 1240,12174 1051,12336 -350,350 -16565,1158 -30464,1481 -8403,216 -16915,-54 -17400,-565 -350,-350 -431,-1185 -862,-10290l-188 -3555 23891 0 23865 0 107 593zm-137476 8161c2451,646 12229,2182 21494,3340 3044,377 3206,512 3394,2370 108,862 323,2586 485,3852 485,3259 512,3097 -727,3017 -5118,-405 -23919,-4337 -25939,-5414 -646,-351 -969,-1347 -1427,-4633 -377,-2667 -243,-3340 646,-3098 323,108 1266,350 2074,566l0 0zm174916 646c81,135 323,1482 539,3044 215,1535 539,3124 673,3555 458,1159 350,1670 -377,1994 -1185,538 -6572,1885 -10504,2612 -2074,404 -5818,1132 -8350,1616 -2505,512 -5630,1024 -6896,1105 -2774,215 -2478,673 -3070,-4606 -243,-2074 -485,-4040 -566,-4364 -108,-377 0,-673 350,-835 270,-161 2855,-592 5737,-996 2882,-377 6276,-862 7542,-1078 1266,-215 4041,-565 6195,-808 2155,-242 4876,-646 6061,-915 2639,-620 2505,-620 2666,-324l0 0zm-139227 4068c1778,269 10020,1104 17454,1750 2640,216 10370,512 17211,647 6815,161 12444,323 12498,377 81,54 243,1185 377,2505 162,1320 458,3636 728,5171 296,1859 350,2855 161,3044 -350,350 -13494,350 -18827,-27 -11367,-781 -22410,-1697 -25158,-2047 -1697,-242 -3690,-431 -4390,-431 -1131,0 -1320,-108 -1670,-754 -647,-1266 -1751,-9185 -1401,-10101 189,-458 781,-512 3017,-134l0 0zm103404 2208c269,1212 969,7030 969,7919 0,727 -107,916 -592,1024 -1778,323 -17751,2370 -20282,2586 -4337,404 -26047,646 -26504,296 -378,-243 -1859,-8404 -1913,-10289l0 -701 12336 -161c6761,-108 14491,-297 17158,-458 9346,-566 12417,-727 15542,-781 3070,-27 3178,0 3286,565l0 0zm-137154 3448c1078,269 3475,781 5334,1077 1858,323 4336,808 5521,1078 1185,269 4579,889 7515,1346 2963,458 5468,889 5576,943 107,81 323,943 484,1939 189,1024 674,3179 1105,4822 1050,3852 1050,3878 -135,3878 -2074,0 -16322,-3851 -21332,-5764 -3960,-1508 -4579,-1885 -5307,-3340 -808,-1616 -2127,-5898 -1912,-6248 242,-404 970,-324 3151,269l0 0zm175132 3017c108,754 350,2020 566,2801 188,781 404,2047 431,2855l80 1427 -3744 1159c-6545,2020 -17427,4606 -22571,5333 -1266,161 -1266,161 -1697,-835 -431,-1051 -1562,-5872 -1859,-8000 -188,-1185 -134,-1266 566,-1643 431,-215 1751,-485 2936,-592 1185,-108 2640,-297 3232,-458 754,-189 1320,-162 2074,80 862,270 1077,270 1482,-80 565,-512 1831,-862 4659,-1293 1105,-162 2748,-512 3637,-727 2424,-620 7084,-1374 8646,-1401l1373 -27 189 1401 0 0zm-139954 4228c835,297 2639,647 3959,808 4444,512 23811,1563 38948,2074l4768 162 969 3986c566,2209 1078,4660 1158,5468 135,1347 81,1509 -484,1886 -351,242 -1239,511 -1994,592 -1535,189 -32376,-1966 -40833,-2855 -5495,-592 -5549,-592 -5818,-1293 -162,-377 -673,-1616 -1158,-2720 -1051,-2532 -2532,-7704 -2317,-8215 189,-539 943,-512 2802,107zm103592 889c242,323 431,1024 431,1563 0,511 242,1966 538,3232 782,3394 728,3986 -323,4417 -2370,970 -21198,3367 -29036,3690 -6410,270 -15164,81 -15972,-350 -270,-135 -727,-808 -1051,-1508 -538,-1293 -2370,-7677 -2370,-8323 0,-270 1212,-350 6141,-350 3367,0 8970,-135 12444,-270 6545,-242 21872,-1643 25023,-2262 2774,-566 3690,-539 4175,161l0 0zm-134837 3071c4983,1939 10639,3501 20632,5629 2263,485 3394,1239 3394,2290 0,296 431,1400 943,2424 1023,2020 1185,2963 538,2963 -242,0 -1131,-296 -2020,-673 -889,-378 -3474,-1213 -5737,-1886 -6653,-1912 -15811,-5333 -18612,-6949 -1077,-620 -3124,-3582 -3124,-4552 0,-700 511,-620 3986,754l0 0zm173489 1104c646,566 1912,4067 1912,5360 0,593 -162,997 -458,1132 -2451,1292 -14922,5036 -21737,6545l-3986 889 -1050 -1185c-566,-674 -1159,-1590 -1320,-2020 -162,-458 -647,-1536 -1105,-2425 -431,-889 -781,-1777 -781,-1939 0,-404 620,-539 3232,-727 1105,-54 3125,-431 4445,-781 1346,-377 4552,-1185 7137,-1778 2586,-620 6465,-1643 8620,-2316 2154,-647 4040,-1186 4202,-1186 188,-27 565,189 888,431l1 0zm-167779 7273c3098,1346 6276,2451 15488,5333 2666,835 5225,1751 5683,2047 835,512 1697,1993 1347,2316 -647,647 -16862,-4659 -23245,-7595 -2909,-1347 -5010,-3125 -4525,-3906 188,-296 1077,27 5252,1805zm131335 485c781,511 1401,1723 2505,4794 1051,2990 1078,3609 108,3986 -862,324 -11609,1886 -17185,2505 -6275,674 -15810,1239 -22086,1320l-5926 54 -2074 -4040c-1158,-2236 -2074,-4283 -2020,-4552 27,-350 350,-620 862,-728 458,-134 6033,-323 12390,-457 9670,-216 11744,-324 12633,-701 619,-269 1777,-431 2909,-431 1993,0 11393,-1346 13952,-2020 1697,-431 3017,-350 3932,270l0 0zm-93491 1589c6572,781 18881,1643 28955,2074 9481,404 9347,377 9993,1400 781,1293 2128,4983 2316,6357l162 1185 -4552 -162c-9939,-404 -30356,-2666 -37978,-4228 -2936,-620 -4714,-674 -5576,-216 -485,243 -646,189 -1104,-431 -728,-942 -2586,-5252 -2586,-5979 0,-297 81,-647 215,-755 243,-269 2775,-80 10155,755zm134136 188c377,485 943,1347 1239,1940 674,1292 458,1643 -1535,2208 -727,216 -3232,1024 -5549,1832 -6787,2343 -15352,4363 -16915,3986 -1508,-350 -2963,-1131 -4094,-2208 -1454,-1374 -1320,-1940 593,-2209 4875,-727 11986,-2532 19258,-4875 5468,-1751 6034,-1805 7003,-674l0 0zm-134944 8404c3986,943 15003,2505 21278,2990 2829,242 8458,538 12525,700 9912,404 9454,350 10101,1562 296,539 943,1509 1427,2155 997,1293 1482,2397 1186,2586 -243,134 -8135,-647 -15946,-1616 -9131,-1105 -24161,-3771 -30167,-5387 -3367,-889 -5657,-2344 -5657,-3610 0,-431 1563,-242 5253,620l0 0zm99390 673c512,350 1832,3233 1670,3664 -350,888 -6949,2343 -16161,3501 -6922,889 -9939,1158 -19259,1643 -9077,485 -8161,673 -10935,-2289 -1805,-1967 -2236,-2640 -1724,-2802 188,-80 4040,-188 8565,-269 8916,-135 11690,-377 24026,-2047 12417,-1697 13306,-1778 13818,-1401l0 0z"/>
   <path class="fil0" d="M130052 42219c-485,566 216,728 4444,970 2425,162 4202,404 4930,700 1050,431 1158,404 1643,-27 296,-269 538,-592 538,-700 0,-943 -10801,-1832 -11555,-943l0 0z"/>
   <path class="fil0" d="M81192 42947c-2747,188 -3690,484 -3690,1131 0,350 4148,108 8754,-512 5575,-754 2343,-1158 -5064,-619z"/>
   <path class="fil0" d="M83131 51835c-4983,269 -11178,970 -14248,1589 -1401,297 -3394,647 -4444,808 -2532,377 -3744,808 -3421,1132 323,323 5872,-216 14679,-1428 6950,-943 11771,-1293 11771,-835 0,162 -216,404 -458,539 -1670,889 -20875,4336 -27905,5064 -1750,161 -2478,592 -1939,1131 1104,1104 30302,-4229 32376,-5926 188,-135 862,-431 1481,-619 835,-243 1159,-485 1159,-835 0,-889 -1940,-1024 -9051,-620l0 0z"/>
   <path class="fil0" d="M93798 56306c-297,54 -1724,485 -3179,889 -1454,431 -4552,1104 -6868,1482 -5037,835 -6034,1346 -2155,1131 5603,-350 13333,-1832 13818,-2640 215,-323 -350,-1050 -781,-1023 -162,27 -539,80 -835,161l0 0z"/>
   <path class="fil0" d="M169135 48872c54,189 646,512 1266,701 2505,727 16753,1212 17157,592 405,-673 -592,-862 -5063,-1077 -2559,-108 -6653,-297 -9077,-404 -3691,-162 -4391,-135 -4283,188l0 0z"/>
   <path class="fil0" d="M168004 51781c0,162 54,297 107,297 54,0 1482,242 3179,511 5144,889 10262,1374 14302,1401 4175,0 5306,-135 5306,-727 0,-297 -592,-377 -2747,-377 -4067,0 -15030,-701 -18989,-1239 -727,-81 -1158,-27 -1158,134l0 0z"/>
   <path class="fil0" d="M117635 51754c-565,108 -943,350 -943,593 0,539 1051,592 8754,350 5738,-189 6276,-242 5657,-620 -539,-296 -1967,-404 -6599,-430 -3260,-27 -6357,26 -6869,107z"/>
   <path class="fil0" d="M129056 57491c-458,755 511,916 5898,916 3933,-27 5738,-134 6519,-404 1023,-350 1050,-377 404,-565 -1132,-324 -12606,-270 -12821,53z"/>
   <path class="fil0" d="M163829 58515c-270,485 404,593 4794,862 2397,135 5252,377 6330,512 3852,511 6087,188 3636,-539 -3071,-889 -14329,-1508 -14760,-835z"/>
   <path class="fil0" d="M31766 63256c-5090,1669 -5979,2074 -5979,2639 0,485 2397,0 6572,-1293 4471,-1373 6087,-2101 6087,-2693 0,-701 -1266,-431 -6680,1347z"/>
   <path class="fil0" d="M72519 70797c-1778,485 -3582,1051 -4040,1212 -728,270 -755,324 -297,593 674,377 3286,54 5791,-727 2290,-728 3179,-1239 2882,-1697 -269,-458 -727,-404 -4336,619l0 0z"/>
   <path class="fil0" d="M121406 69504c-1724,270 -1966,378 -1643,701 458,458 11986,458 12444,0 754,-754 -81,-889 -5091,-862 -2774,27 -5333,81 -5710,161z"/>
   <path class="fil0" d="M166172 69801c-754,54 -1131,188 -1050,404 134,431 1750,700 4632,727 1347,0 3664,135 5199,269 1508,135 3017,162 3340,27l592 -215 -592 -323c-1051,-566 -8835,-1132 -12121,-889l0 0z"/>
   <path class="fil0" d="M114053 147751c-539,323 134,727 1777,1023 1697,324 15380,270 15704,-80 404,-378 -189,-539 -2909,-755 -3717,-296 -14195,-431 -14572,-188l0 0z"/>
   <path class="fil0" d="M136490 159845c-4633,619 -7003,1212 -7003,1723 0,566 781,512 5764,-296 4632,-754 5683,-1023 5413,-1454 -188,-324 -1669,-297 -4174,27l0 0z"/>
   <path class="fil0" d="M81946 159279c-242,404 889,727 4094,1212 3340,485 8188,458 8350,-54 162,-458 -485,-565 -6383,-1023 -6276,-485 -5845,-458 -6061,-135l0 0z"/>
  </g>
  <path class="fil1" d="M48012 191368l0 -12124 2198 0 0 4358c334,-410 704,-715 1102,-921 402,-203 833,-304 1294,-304 972,0 1796,383 2470,1151 671,768 1008,1899 1008,3395 0,1493 -344,2639 -1031,3443 -687,805 -1498,1205 -2425,1205 -473,0 -940,-127 -1400,-383 -460,-254 -853,-624 -1174,-1110l0 1290 -2042 0zm2179 -4580c0,756 84,1335 249,1733 162,400 399,702 700,911 305,206 626,311 960,311 483,0 891,-220 1235,-661 340,-440 512,-1134 512,-2088 0,-1002 -172,-1725 -518,-2170 -344,-446 -782,-669 -1313,-669 -506,0 -937,214 -1294,646 -353,432 -531,1095 -531,1987z"/>
  <polygon id="1" class="fil1" points="57212,188134 57212,185814 61511,185814 61511,188134 "/>
  <path id="2" class="fil1" d="M63067 191368l0 -12124 2198 0 0 4358c333,-410 703,-715 1102,-921 402,-203 833,-304 1293,-304 973,0 1796,383 2470,1151 671,768 1009,1899 1009,3395 0,1493 -344,2639 -1031,3443 -688,805 -1498,1205 -2425,1205 -473,0 -940,-127 -1401,-383 -460,-254 -852,-624 -1173,-1110l0 1290 -2042 0zm2178 -4580c0,756 84,1335 250,1733 162,400 398,702 700,911 305,206 626,311 959,311 483,0 892,-220 1236,-661 340,-440 512,-1134 512,-2088 0,-1002 -172,-1725 -519,-2170 -344,-446 -781,-669 -1313,-669 -505,0 -937,214 -1293,646 -354,432 -532,1095 -532,1987z"/>
  <path id="3" class="fil1" d="M74562 185255l-1984 -355c240,-898 635,-1541 1190,-1933 551,-393 1345,-590 2382,-590 924,0 1628,113 2114,338 486,226 833,534 1044,923 207,390 311,1098 311,2125l-20 2715c0,762 36,1330 104,1702 68,373 195,768 383,1188l-2159 0 -286 -959c-372,386 -774,677 -1202,872 -428,194 -882,290 -1365,290 -804,0 -1465,-237 -1977,-708 -516,-474 -772,-1101 -772,-1885 0,-500 104,-931 314,-1304 211,-370 506,-666 885,-886 383,-220 992,-418 1832,-587 1015,-206 1725,-395 2123,-573 0,-486 -39,-804 -120,-957 -77,-149 -223,-274 -434,-372 -211,-96 -509,-144 -895,-144 -392,0 -700,76 -924,231 -223,155 -405,443 -544,869zm2917 1880c-278,99 -716,217 -1306,350 -681,155 -1125,327 -1336,514 -210,189 -314,434 -314,733 0,336 117,621 347,853 233,228 525,344 875,344 311,0 619,-93 924,-279 305,-187 515,-407 635,-661 117,-254 175,-717 175,-1388l0 -466z"/>
  <path id="4" class="fil1" d="M83879 191368l-2198 0 0 -8788 2042 0 0 1247c350,-584 661,-971 937,-1162 275,-192 593,-288 953,-288 502,0 979,146 1436,437l-684 2026c-363,-254 -704,-381 -1028,-381 -304,0 -574,99 -807,294 -230,198 -399,550 -499,1064 -101,514 -152,1459 -152,2833l0 2718z"/>
  <path id="5" class="fil1" d="M90080 191368l-2198 0 0 -8788 2042 0 0 1247c350,-584 662,-971 937,-1162 276,-192 593,-288 953,-288 503,0 979,146 1436,437l-684 2026c-363,-254 -703,-381 -1027,-381 -305,0 -574,99 -808,294 -230,198 -398,550 -499,1064 -100,514 -152,1459 -152,2833l0 2718z"/>
  <path id="6" class="fil1" d="M98985 188574l2178 390c-292,883 -745,1538 -1361,1967 -616,426 -1365,640 -2247,640 -1225,0 -2169,-355 -2836,-1069 -788,-827 -1180,-1987 -1180,-3477 0,-1471 395,-2647 1186,-3531 671,-745 1540,-1117 2603,-1117 1183,0 2111,381 2782,1143 774,872 1160,2159 1160,3858l-9 265 -5485 0c13,694 191,1233 541,1614 347,381 765,570 1254,570 707,0 1177,-417 1414,-1253zm117 -2353c-20,-686 -189,-1203 -506,-1547 -318,-347 -694,-519 -1135,-519 -463,0 -852,180 -1170,539 -324,364 -483,875 -477,1527l3288 0z"/>
  <polygon id="7" class="fil1" points="103050,191368 103050,179244 105248,179244 105248,191368 "/>
  <polygon id="8" class="fil1" points="107465,191368 107465,189048 109644,189048 109644,191368 "/>
  <path id="9" class="fil1" d="M119135 185188l-2159 406c-159,-926 -658,-1389 -1501,-1389 -541,0 -979,198 -1309,596 -331,398 -496,1070 -496,2015 0,1044 165,1781 496,2213 327,431 768,646 1319,646 412,0 752,-124 1018,-370 266,-245 457,-683 571,-1306l2159 389c-445,2122 -1719,3183 -3826,3183 -1345,0 -2343,-448 -2995,-1343 -652,-895 -979,-1970 -979,-3229 0,-1507 370,-2655 1109,-3443 739,-787 1705,-1179 2904,-1179 970,0 1760,225 2373,674 610,449 1050,1160 1316,2137z"/>
  <path id="10" class="fil1" d="M120263 186850c0,-861 198,-1645 590,-2354 393,-705 905,-1236 1537,-1589 635,-353 1345,-530 2140,-530 1329,0 2372,454 3131,1363 762,909 1141,1970 1141,3183 0,906 -198,1725 -593,2453 -396,728 -914,1278 -1559,1645 -642,367 -1346,550 -2111,550 -1228,0 -2249,-409 -3060,-1224 -810,-819 -1216,-1984 -1216,-3497zm2237 124c0,889 201,1561 600,2018 402,454 885,683 1452,683 555,0 1028,-229 1423,-689 393,-457 590,-1134 590,-2029 0,-872 -201,-1538 -599,-1995 -402,-460 -882,-689 -1443,-689 -554,0 -1028,229 -1426,689 -399,457 -597,1129 -597,2012z"/>
  <path id="11" class="fil1" d="M130358 182580l2042 0 0 1199c360,-468 756,-821 1187,-1052 431,-235 898,-350 1397,-350 532,0 992,115 1381,347 389,231 710,581 956,1050 367,-469 762,-819 1180,-1050 422,-232 869,-347 1346,-347 564,0 1050,118 1458,352 409,235 717,571 931,1005 210,438 317,1106 317,2012l0 5622 -2197 0 0 -5026c0,-878 -91,-1462 -270,-1753 -178,-290 -476,-434 -897,-434 -490,0 -885,203 -1184,609 -301,404 -450,1200 -450,2379l0 4225 -2198 0 0 -4820c0,-954 -62,-1572 -182,-1846 -155,-364 -476,-547 -956,-547 -324,0 -622,93 -895,282 -272,186 -467,463 -586,824 -120,361 -182,974 -182,1834l0 4273 -2198 0 0 -8788z"/>
  <polygon id="12" class="fil1" points="144693,191368 144693,189048 146871,189048 146871,191368 "/>
  <path id="13" class="fil1" d="M154593 191368l0 -1318c-305,477 -703,850 -1196,1118 -493,268 -1008,403 -1546,403 -545,0 -1031,-124 -1462,-372 -431,-248 -752,-601 -963,-1061 -211,-457 -318,-1123 -318,-1996l0 -5562 2198 0 0 4036c0,1154 33,1885 101,2198 64,311 210,553 437,723 227,172 503,256 824,256 366,0 703,-112 1014,-335 308,-223 512,-511 610,-861 97,-350 146,-1121 146,-2312l0 -3705 2197 0 0 8788 -2042 0z"/>
  <path id="14" class="fil1" d="M160545 185255l-1984 -355c240,-898 635,-1541 1190,-1933 551,-393 1345,-590 2382,-590 924,0 1628,113 2114,338 486,226 833,534 1044,923 207,390 311,1098 311,2125l-19 2715c0,762 35,1330 103,1702 68,373 195,768 383,1188l-2159 0 -285 -959c-373,386 -775,677 -1203,872 -428,194 -882,290 -1365,290 -804,0 -1465,-237 -1977,-708 -516,-474 -772,-1101 -772,-1885 0,-500 104,-931 315,-1304 210,-370 505,-666 885,-886 382,-220 992,-418 1831,-587 1015,-206 1725,-395 2124,-573 0,-486 -39,-804 -120,-957 -78,-149 -224,-274 -435,-372 -211,-96 -509,-144 -895,-144 -392,0 -700,76 -923,231 -224,155 -406,443 -545,869zm2918 1880c-279,99 -717,217 -1307,350 -681,155 -1125,327 -1335,514 -211,189 -315,434 -315,733 0,336 117,621 347,853 233,228 525,344 875,344 311,0 619,-93 924,-279 305,-187 516,-407 635,-661 117,-254 176,-717 176,-1388l0 -466z"/>
  <g id="_2407192227600">
   <path class="fil1" d="M24515 7794l7509 -783c2046,-214 3503,-202 4372,40 868,236 1630,737 2284,1501 660,764 1044,1664 1153,2705 100,958 -55,1849 -458,2672 -407,828 -980,1463 -1718,1914 1136,228 2058,726 2767,1494 709,768 1127,1743 1252,2937 151,1448 -120,2711 -819,3790 -693,1083 -1575,1797 -2639,2146 -744,241 -2494,508 -5258,796l-6372 665 -2073 -19877zm4107 2911l481 4609 2508 -262c1504,-157 2432,-277 2783,-361 639,-155 1119,-448 1446,-871 327,-422 453,-964 384,-1625 -62,-592 -261,-1054 -596,-1388 -337,-339 -722,-528 -1156,-576 -429,-44 -1651,36 -3655,245l-2195 229zm825 7912l554 5303 3518 -367c1541,-161 2522,-334 2949,-519 421,-188 759,-500 1014,-943 255,-438 349,-976 283,-1605 -68,-653 -283,-1168 -645,-1556 -363,-383 -813,-631 -1356,-733 -542,-103 -1624,-69 -3250,100l-3067 320z"/>
   <path id="1" class="fil1" d="M47093 15401l-3313 -243c240,-1513 778,-2635 1620,-3373 836,-738 2105,-1197 3805,-1375 1515,-158 2687,-93 3523,194 836,287 1457,732 1869,1335 407,603 698,1746 874,3430l433 4455c130,1249 285,2173 461,2772 175,599 450,1225 830,1882l-3540 370 -631 -1525c-545,698 -1155,1243 -1823,1636 -668,392 -1396,627 -2188,710 -1318,137 -2442,-138 -3363,-823 -926,-690 -1453,-1673 -1587,-2959 -86,-819 11,-1545 293,-2192 282,-642 715,-1178 1299,-1604 589,-426 1555,-854 2902,-1276 1628,-511 2760,-942 3383,-1302 -83,-796 -201,-1312 -360,-1548 -153,-232 -414,-410 -776,-536 -362,-122 -859,-149 -1491,-83 -643,67 -1135,244 -1475,537 -341,293 -589,796 -745,1518zm5105 2583c-440,210 -1137,479 -2082,797 -1089,371 -1788,729 -2102,1071 -313,346 -441,766 -390,1256 58,551 298,998 715,1338 421,335 920,475 1494,415 510,-53 999,-258 1466,-616 468,-358 776,-754 929,-1191 148,-437 165,-1205 50,-2307l-80 -763z"/>
   <path id="2" class="fil1" d="M64684 9132l316 3026 -2455 256 606 5816c132,1264 245,1986 340,2177 182,351 498,500 945,454 329,-35 795,-205 1391,-515l623 2928c-790,466 -1711,754 -2763,864 -914,95 -1667,-18 -2260,-340 -587,-327 -1016,-834 -1277,-1532 -198,-507 -384,-1568 -552,-3183l-657 -6293 -1658 173 -316 -3026 1659 -173 -299 -2859 3372 -2597 530 5080 2455 -256z"/>
   <path id="3" class="fil1" d="M70204 3028l761 7292c493,-781 1069,-1388 1718,-1816 653,-429 1384,-687 2192,-772 1079,-112 2008,44 2783,463 780,424 1369,1074 1778,1957 298,647 529,1774 697,3384l882 8458 -3603 375 -795 -7615c-184,-1768 -427,-2856 -733,-3273 -424,-559 -1067,-796 -1933,-705 -919,95 -1598,494 -2040,1195 -443,701 -572,1935 -387,3712l754 7222 -3604 376 -2073 -19877 3603 -376z"/>
   <path class="fil1" d="M107232 19412l-2191 2964c-1063,-554 -2094,-1326 -3083,-2317 -785,754 -1608,1293 -2468,1624 -861,330 -1860,497 -2998,497 -2266,0 -3943,-600 -5034,-1795 -1090,-1200 -1635,-2545 -1635,-4034 0,-2567 1427,-4605 4286,-6112 -1299,-1596 -1945,-3057 -1945,-4382 0,-1280 481,-2322 1443,-3126 961,-805 2238,-1205 3831,-1205 1539,0 2789,418 3756,1260 967,842 1454,1936 1454,3280 0,861 -241,1656 -727,2377 -486,721 -1389,1526 -2704,2405l2618 3652c289,-558 556,-1317 797,-2270l3254 795c-502,1945 -1042,3322 -1625,4122 396,391 914,828 1555,1312 642,479 1112,800 1416,953zm-9848 -10848l989 -795c732,-591 1101,-1173 1101,-1745 0,-530 -182,-958 -551,-1293 -368,-330 -833,-498 -1389,-498 -545,0 -989,144 -1330,433 -343,293 -513,646 -513,1060 0,480 272,1056 817,1726l876 1112zm-1400 4126c-801,438 -1416,968 -1838,1591 -422,619 -636,1270 -636,1954 0,851 262,1531 791,2033 529,507 1208,758 2036,758 1074,0 2191,-507 3340,-1525l-3693 -4811z"/>
   <path class="fil1" d="M118006 2198l7528 581c2051,158 3482,431 4293,825 812,389 1471,1019 1977,1888 512,870 728,1825 647,2868 -74,960 -386,1809 -930,2546 -551,741 -1229,1263 -2035,1574 1076,428 1894,1084 2453,1967 559,883 795,1918 703,3115 -112,1452 -606,2645 -1487,3580 -876,941 -1872,1484 -2983,1637 -774,103 -2544,51 -5314,-163l-6388 -492 1536 -19926zm3517 3603l-357 4619 2515 194c1508,116 2442,165 2802,146 657,-38 1182,-240 1579,-597 398,-356 619,-866 670,-1530 46,-593 -66,-1083 -337,-1472 -269,-394 -614,-649 -1033,-775 -414,-120 -1631,-261 -3639,-416l-2200 -169zm-612 7931l-410 5316 3527 271c1545,119 2542,126 2995,21 448,-110 836,-355 1166,-745 330,-385 520,-898 568,-1529 51,-654 -68,-1199 -355,-1646 -287,-442 -686,-767 -1201,-965 -515,-198 -1586,-360 -3216,-486l-3074 -237z"/>
   <path id="1" class="fil1" d="M138848 13743l-3216 -836c508,-1444 1240,-2452 2201,-3026 955,-575 2285,-799 3990,-668 1518,117 2660,392 3431,825 770,432 1301,982 1598,1648 292,667 373,1844 243,3532l-376 4460c-97,1252 -110,2189 -45,2810 64,621 222,1286 478,2001l-3549 -273 -347 -1614c-661,589 -1359,1015 -2087,1281 -728,266 -1486,366 -2280,305 -1321,-102 -2378,-575 -3160,-1415 -787,-844 -1128,-1906 -1029,-3196 63,-821 289,-1517 682,-2103 393,-581 916,-1030 1567,-1344 656,-313 1683,-561 3084,-733 1694,-210 2885,-431 3563,-672 61,-798 37,-1327 -76,-1588 -109,-256 -333,-478 -667,-667 -334,-184 -818,-301 -1452,-350 -645,-50 -1161,37 -1548,263 -387,227 -722,677 -1005,1360zm4557 3459c-471,127 -1205,266 -2192,409 -1138,169 -1890,396 -2260,675 -370,284 -572,675 -610,1166 -42,552 114,1035 462,1445 355,405 820,632 1395,677 512,39 1030,-75 1554,-342 525,-268 899,-603 1128,-1005 224,-403 379,-1156 464,-2260l59 -765z"/>
   <path id="2" class="fil1" d="M153385 24969l-3612 -278 1113 -14443 3357 258 -158 2050c649,-915 1209,-1511 1687,-1792 477,-280 1011,-398 1602,-352 826,63 1591,365 2305,901l-1381 3243c-564,-463 -1108,-715 -1640,-756 -501,-39 -956,90 -1364,380 -403,296 -725,854 -955,1685 -231,832 -436,2379 -610,4638l-344 4466z"/>
   <path id="3" class="fil1" d="M163577 25755l-3612 -278 1113 -14444 3356 259 -158 2050c650,-916 1210,-1512 1687,-1792 477,-281 1012,-398 1603,-353 826,64 1590,366 2305,901l-1381 3244c-565,-464 -1108,-715 -1641,-756 -500,-39 -955,89 -1363,380 -404,295 -725,854 -956,1685 -230,831 -435,2379 -609,4637l-344 4467z"/>
   <path id="4" class="fil1" d="M178566 22291l3531 916c-592,1415 -1421,2434 -2487,3061 -1067,622 -2324,880 -3773,768 -2014,-155 -3520,-859 -4527,-2117 -1189,-1459 -1687,-3415 -1498,-5864 186,-2417 985,-4301 2397,-5652 1197,-1140 2672,-1642 4419,-1507 1945,150 3420,893 4427,2231 1163,1531 1633,3695 1418,6487l-49 435 -9015 -695c-66,1143 158,2051 686,2722 521,670 1185,1034 1989,1096 1162,89 1987,-538 2482,-1881zm490 -3853c55,-1130 -157,-2000 -635,-2606 -479,-611 -1075,-941 -1799,-997 -762,-59 -1424,189 -1992,737 -579,558 -905,1377 -977,2449l5403 417z"/>
   <polygon id="5" class="fil1" points="184893,27398 186428,7472 190041,7751 188505,27676 "/>
  </g>
 </g>
</svg>
