<?xml version="1.0" encoding="UTF-8"?>
<!DOCTYPE svg PUBLIC "-//W3C//DTD SVG 1.1//EN" "http://www.w3.org/Graphics/SVG/1.1/DTD/svg11.dtd">
<!-- Creator: CorelDRAW X7 -->
<svg xmlns="http://www.w3.org/2000/svg" xml:space="preserve" width="31mm" height="30mm" version="1.1" style="shape-rendering:geometricPrecision; text-rendering:geometricPrecision; image-rendering:optimizeQuality; fill-rule:evenodd; clip-rule:evenodd"
viewBox="0 0 3100 3000"
 xmlns:xlink="http://www.w3.org/1999/xlink">
 <defs>
  <style type="text/css">
   <![CDATA[
    .str0 {stroke:#2B2A29;stroke-width:17.64}
    .str1 {stroke:#2B2A29;stroke-width:7.62}
    .fil1 {fill:none}
    .fil0 {fill:none;fill-rule:nonzero}
   ]]>
  </style>
 </defs>
<symbol id="Символ1" viewBox="-1173 -75 5446 3150">
 <path class="fil0 str0" d="M195 -66l4064 0 -1354 3132 -4064 0 1354 -3132zm2032 0m1355 1566m-2709 1566m-1355 -1566"/>
</symbol>
 <g id="Слой_x0020_1">
  <metadata id="CorelCorpID_0Corel-Layer"/>
  <path class="fil1 str1" d="M355 671c274,-125 696,-189 1149,-176 696,20 1318,218 1508,479"/>
  <path class="fil1 str1" d="M2843 2392c-208,194 -737,264 -1342,177 -564,-81 -1095,-283 -1380,-526"/>
  <path class="fil1 str1" d="M161 1328c484,14 1063,61 1643,131 307,38 607,81 886,128"/>
  <path class="fil1 str1" d="M189 1159c379,-38 930,-17 1493,57 383,51 747,122 1040,205"/>
  <path class="fil1 str1" d="M2668 1760c-428,16 -1106,-39 -1801,-147 -253,-40 -500,-85 -729,-133"/>
  <path class="fil1 str1" d="M234 1005c323,-59 797,-68 1280,-23 527,48 997,153 1249,279"/>
  <path class="fil1 str1" d="M287 881c236,-110 773,-144 1344,-85 536,56 997,182 1177,323"/>
  <path class="fil1 str1" d="M350 763c236,-135 772,-182 1341,-115 527,61 983,207 1167,374"/>
  <path class="fil1 str1" d="M402 693c223,-142 763,-191 1340,-123 533,64 991,216 1165,387"/>
  <path class="fil1 str1" d="M2666 2092c-280,81 -814,85 -1370,11 -499,-67 -938,-188 -1160,-318"/>
  <path class="fil1 str1" d="M2663 1955c-339,48 -976,5 -1641,-111 -323,-56 -631,-126 -892,-202"/>
  <path class="fil1 str1" d="M2681 2234c-305,86 -788,107 -1283,55 -569,-61 -1056,-207 -1247,-374"/>
  <path class="fil1 str1" d="M2737 2386c-287,98 -793,119 -1317,54 -580,-72 -1072,-235 -1245,-412"/>
  <path class="fil1 str1" d="M1842 505c-15,-4 -51,-8 -73,-7 -21,0 -28,5 -36,12 -8,8 -17,17 -25,26 -9,8 -16,15 -25,24 -9,9 -18,21 -27,32 -9,11 -17,21 -30,39 -12,19 -28,45 -39,63 -10,18 -16,29 -22,41 -6,11 -12,24 -18,38 -7,14 -13,29 -19,42 -5,14 -10,25 -15,37 -4,12 -9,24 -13,36 -5,12 -9,24 -15,40 -5,16 -12,35 -17,53 -6,17 -10,32 -15,48 -5,15 -9,31 -14,47 -4,16 -8,31 -12,46 -4,15 -7,29 -11,46 -4,16 -9,35 -12,52 -4,17 -7,32 -12,54 -4,22 -10,50 -15,79 -5,28 -10,56 -14,83 -4,27 -8,52 -12,83 -4,31 -8,67 -11,101 -4,33 -7,64 -9,95 -2,30 -4,61 -5,95 -2,34 -2,72 -3,104 0,33 0,60 1,84 0,24 1,46 3,73 1,27 4,60 7,90 3,29 6,55 10,83 4,27 10,55 16,83 6,27 13,53 20,77 8,23 15,44 23,62 8,17 16,32 23,46 7,13 13,24 18,32 5,8 8,13 12,21 4,7 9,16 29,19 20,4 55,2 70,-2 16,-3 11,-8 4,-19 -8,-11 -18,-27 -27,-41 -10,-15 -17,-29 -26,-49 -9,-20 -19,-45 -26,-66 -7,-21 -12,-38 -16,-57 -4,-18 -9,-40 -12,-59 -3,-19 -6,-36 -9,-60 -2,-24 -6,-57 -8,-84 -2,-27 -3,-50 -4,-80 -1,-30 -2,-67 -2,-98 0,-31 1,-56 2,-85 1,-29 3,-61 5,-89 2,-28 3,-51 6,-74 2,-24 4,-47 7,-77 4,-30 9,-67 13,-95 3,-28 6,-47 10,-70 4,-23 8,-50 14,-79 5,-29 11,-60 19,-94 7,-33 15,-69 23,-103 9,-33 17,-65 25,-94 9,-30 17,-58 26,-86 9,-28 18,-55 28,-84 10,-28 21,-57 28,-75 7,-18 10,-25 17,-41 7,-16 18,-40 30,-64 12,-24 24,-48 36,-70 13,-22 25,-42 40,-62 14,-21 31,-43 46,-61 14,-18 26,-33 35,-42 10,-10 17,-15 3,-19z"/>
  <path class="fil1 str1" d="M1054 504c-1,-3 -6,-2 -22,-2 -17,1 -44,2 -61,4 -17,3 -23,8 -29,12 -6,4 -11,7 -17,11 -5,4 -11,10 -17,15 -6,5 -12,10 -21,18 -9,9 -21,21 -30,32 -10,10 -17,19 -29,35 -11,17 -27,40 -38,57 -10,16 -16,26 -22,36 -5,11 -12,23 -18,35 -6,13 -13,26 -18,38 -6,13 -11,23 -16,34 -4,11 -9,22 -13,33 -5,10 -9,21 -14,36 -6,14 -12,32 -18,48 -6,15 -10,29 -15,43 -4,14 -9,29 -13,43 -5,14 -9,28 -13,42 -4,13 -7,26 -11,41 -4,15 -8,32 -12,47 -4,15 -7,29 -12,49 -4,20 -10,46 -15,72 -5,26 -10,51 -14,76 -4,24 -8,47 -12,74 -3,28 -8,61 -11,92 -4,30 -6,58 -9,86 -2,28 -4,55 -5,86 -1,31 -2,65 -3,95 0,29 0,54 1,76 0,22 1,41 3,66 2,25 4,55 7,81 3,27 6,51 10,76 5,24 10,50 16,75 6,25 13,49 20,70 8,21 15,40 23,56 8,16 16,30 23,42 7,11 13,22 19,30 6,9 11,15 33,22 21,7 59,14 76,14 16,0 12,-8 5,-18 -7,-11 -18,-26 -27,-39 -9,-14 -17,-26 -26,-44 -9,-18 -19,-42 -26,-61 -7,-19 -11,-33 -16,-51 -4,-17 -8,-36 -12,-54 -3,-17 -6,-32 -8,-54 -3,-22 -6,-51 -9,-76 -2,-25 -3,-45 -4,-72 -1,-27 -1,-61 -1,-89 0,-29 0,-52 1,-78 2,-26 3,-55 5,-80 2,-25 4,-47 6,-68 2,-21 4,-42 8,-69 3,-27 8,-61 12,-86 4,-25 6,-43 10,-64 4,-21 9,-45 14,-71 5,-27 12,-55 19,-85 7,-31 15,-63 24,-94 8,-30 16,-59 24,-86 9,-27 17,-52 26,-77 9,-25 18,-50 28,-76 10,-26 21,-52 28,-68 7,-17 10,-23 17,-38 7,-14 18,-36 30,-58 12,-21 24,-43 37,-63 12,-20 24,-38 39,-56 14,-19 31,-39 46,-57 15,-19 28,-36 36,-47 8,-10 12,-15 11,-17z"/>
  <path class="fil1 str1" d="M447 640c-1,-3 -9,0 -19,3 -9,4 -19,8 -30,12 -10,4 -21,8 -30,11 -8,4 -15,6 -23,12 -8,6 -18,16 -27,26 -9,10 -18,21 -27,31 -8,10 -16,20 -24,31 -8,12 -18,25 -26,36 -8,12 -15,23 -22,35 -7,11 -14,24 -21,37 -8,13 -15,27 -22,42 -8,15 -15,32 -23,49 -7,17 -14,34 -22,53 -7,18 -14,38 -20,57 -7,19 -13,39 -18,60 -6,21 -12,44 -19,73 -6,30 -13,66 -18,94 -5,28 -7,49 -10,74 -3,25 -5,54 -7,80 -2,26 -3,49 -3,74 -1,24 0,49 0,77 1,29 3,60 7,98 3,38 9,83 14,118 6,36 11,62 17,90 7,29 15,59 20,80 5,20 8,30 21,43 12,13 34,28 47,38 13,10 18,13 21,11 3,-2 4,-10 2,-21 -2,-12 -8,-28 -14,-51 -6,-24 -14,-55 -20,-85 -5,-30 -9,-58 -13,-87 -3,-29 -5,-58 -7,-83 -1,-25 -2,-47 -2,-71 0,-25 0,-53 1,-84 1,-31 3,-65 6,-102 3,-36 7,-75 11,-111 5,-35 10,-68 15,-99 6,-30 11,-57 17,-83 5,-26 11,-49 18,-77 8,-27 16,-58 26,-88 9,-29 19,-58 29,-85 11,-27 22,-54 32,-77 11,-23 21,-44 34,-66 12,-23 28,-48 42,-68 14,-21 26,-36 39,-50 13,-14 26,-27 35,-37 9,-10 15,-18 13,-20z"/>
  <path class="fil1 str1" d="M2456 641c-24,2 -41,15 -57,34 -16,20 -32,45 -42,63 -11,18 -16,28 -22,40 -6,11 -12,24 -18,38 -7,13 -13,28 -19,41 -6,13 -10,25 -15,36 -5,12 -9,24 -14,36 -4,11 -8,23 -14,39 -5,15 -12,35 -17,52 -6,17 -11,31 -15,47 -5,15 -10,31 -14,46 -4,16 -8,31 -12,46 -4,14 -8,28 -12,44 -4,16 -8,35 -12,51 -3,17 -7,32 -11,53 -5,22 -10,50 -15,78 -5,28 -10,56 -14,82 -4,26 -8,51 -12,81 -4,31 -8,66 -12,99 -3,33 -6,64 -8,94 -2,30 -4,60 -5,93 -2,34 -3,71 -3,103 0,32 0,59 0,82 1,24 2,45 3,72 2,27 5,59 7,88 3,29 7,55 11,82 4,27 9,54 15,81 7,27 14,53 21,76 7,23 15,43 23,61 8,17 16,32 23,45 7,13 13,24 18,32 5,8 8,13 12,20 4,7 9,16 28,19 20,4 56,2 71,-1 15,-4 11,-9 4,-19 -8,-11 -18,-26 -28,-41 -9,-15 -17,-28 -26,-48 -8,-19 -18,-45 -25,-65 -8,-21 -12,-37 -16,-55 -4,-19 -9,-40 -12,-59 -4,-19 -6,-35 -9,-59 -3,-24 -6,-55 -8,-82 -2,-27 -4,-49 -4,-79 -1,-29 -2,-65 -2,-96 0,-31 1,-56 2,-84 1,-28 3,-60 5,-87 1,-27 3,-50 5,-73 2,-23 5,-46 8,-76 4,-29 8,-65 12,-93 4,-27 7,-46 11,-69 4,-22 8,-49 14,-77 5,-29 11,-60 18,-92 8,-33 16,-69 24,-102 8,-33 17,-64 25,-93 8,-29 17,-57 26,-84 8,-27 18,-54 28,-82 10,-28 21,-56 28,-74 7,-18 10,-25 17,-40 7,-16 18,-40 30,-63 11,-24 24,-48 38,-67 15,-19 31,-34 41,-45 10,-10 13,-16 14,-21 0,-4 -2,-7 -18,-14 -17,-6 -48,-16 -71,-14z"/>
  <path class="fil1 str1" d="M2939 942c-5,2 -12,5 -17,9 -6,3 -12,7 -16,11 -4,3 -7,6 -10,10 -4,4 -8,9 -14,16 -6,8 -13,18 -21,30 -7,11 -14,24 -23,41 -9,18 -20,40 -30,66 -11,25 -21,54 -30,82 -10,27 -18,54 -26,84 -8,30 -17,64 -26,109 -10,46 -21,103 -29,155 -8,52 -15,99 -19,137 -4,38 -7,67 -9,95 -2,28 -3,54 -5,81 -1,27 -1,56 -2,82 0,27 1,52 2,81 1,30 3,63 5,88 1,24 3,39 5,56 2,17 5,36 8,52 3,16 6,29 9,44 4,14 8,30 13,44 5,14 11,28 16,38 4,10 9,18 13,24 4,6 7,11 11,15 4,4 8,8 12,11 4,3 8,6 12,8 4,2 9,3 13,4 4,1 8,1 13,1 4,0 9,-1 14,-3 5,-1 10,-3 14,-6 5,-2 10,-6 15,-10 5,-4 10,-8 16,-14 6,-7 12,-14 19,-23 7,-9 14,-21 21,-31 6,-11 12,-21 17,-31 6,-11 11,-21 16,-32 5,-11 10,-22 15,-35 6,-14 12,-30 17,-45 6,-15 11,-29 18,-54 8,-24 18,-60 27,-91 8,-31 14,-57 20,-85 6,-29 13,-60 19,-99 7,-39 15,-86 20,-125 5,-40 9,-71 12,-108 4,-37 7,-79 9,-117 2,-37 3,-70 3,-105 0,-36 -1,-74 -3,-107 -1,-33 -3,-61 -6,-87 -3,-26 -6,-50 -11,-75 -4,-25 -10,-52 -16,-73 -6,-21 -12,-37 -18,-50 -6,-13 -11,-23 -16,-31 -5,-8 -10,-14 -15,-19 -5,-5 -10,-9 -15,-12 -6,-4 -11,-6 -15,-7 -5,-2 -9,-2 -12,-2 -4,-1 -7,0 -10,0 -3,1 -6,1 -10,3z"/>
  <path class="fil1 str1" d="M2946 1017c-3,1 -7,4 -11,7 -3,3 -7,7 -9,10 -3,3 -5,6 -7,9 -2,3 -5,8 -9,15 -4,6 -9,15 -14,26 -4,10 -9,21 -15,37 -6,16 -13,36 -21,59 -7,22 -14,48 -21,73 -7,24 -12,48 -18,75 -6,27 -13,57 -20,98 -8,41 -16,92 -23,139 -7,46 -12,88 -16,122 -4,34 -7,61 -9,86 -2,25 -4,48 -6,73 -1,24 -3,50 -4,74 -1,24 -2,46 -2,73 0,26 0,56 0,78 0,22 1,36 1,51 1,15 2,32 3,46 2,15 3,27 4,40 2,13 4,27 7,40 2,13 5,25 8,34 2,9 5,16 7,22 2,5 4,9 6,13 2,4 5,8 7,11 2,2 5,5 7,6 2,2 5,4 8,5 2,0 4,1 7,1 3,-1 6,-1 9,-3 3,-1 6,-3 9,-5 3,-2 6,-5 9,-9 3,-3 7,-8 10,-13 4,-5 8,-12 13,-20 4,-8 9,-18 13,-28 5,-9 8,-18 12,-28 4,-9 7,-18 11,-28 3,-10 6,-20 10,-32 4,-12 8,-26 12,-39 4,-14 7,-26 13,-48 5,-23 13,-55 19,-83 6,-27 11,-50 16,-76 4,-25 9,-53 15,-88 5,-35 11,-77 16,-113 5,-35 8,-63 11,-96 4,-33 7,-71 9,-105 3,-34 5,-63 6,-95 1,-32 2,-66 2,-96 1,-29 0,-55 0,-78 -1,-23 -2,-45 -4,-67 -2,-23 -5,-47 -8,-66 -3,-19 -6,-34 -9,-46 -3,-11 -6,-20 -9,-27 -2,-8 -5,-13 -8,-18 -3,-4 -6,-8 -9,-11 -3,-3 -6,-5 -9,-6 -2,-2 -5,-2 -7,-2 -2,0 -4,0 -6,0 -2,0 -3,1 -6,3z"/>
 </g>
</svg>
