<?xml version="1.0" encoding="UTF-8"?>
<!DOCTYPE svg PUBLIC "-//W3C//DTD SVG 1.1//EN" "http://www.w3.org/Graphics/SVG/1.1/DTD/svg11.dtd">
<!-- Creator: CorelDRAW X7 -->
<svg xmlns="http://www.w3.org/2000/svg" xml:space="preserve" width="170mm" height="36mm" version="1.1" style="shape-rendering:geometricPrecision; text-rendering:geometricPrecision; image-rendering:optimizeQuality; fill-rule:evenodd; clip-rule:evenodd"
viewBox="0 0 170000 36000"
 xmlns:xlink="http://www.w3.org/1999/xlink">
 <defs>
  <style type="text/css">
   <![CDATA[
    .fil0 {fill:#31363D;fill-rule:nonzero}
   ]]>
  </style>
     <clipPath id="id0">
      <path d="M1109 -585l169525 0 0 30658 -169525 0 0 -30658z"/>
     </clipPath>
 </defs>
 <g id="Слой_x0020_1">
  <metadata id="CorelCorpID_0Corel-Layer"/>
  <g id="_1992617257664">
   <path class="fil0" d="M45704 35864l0 -7808 1415 0 0 2806c216,-263 454,-460 710,-592 259,-131 537,-197 833,-197 627,0 1157,247 1591,742 433,494 650,1223 650,2187 0,961 -222,1699 -664,2217 -443,518 -965,776 -1562,776 -305,0 -605,-82 -902,-247 -296,-164 -549,-402 -756,-714l0 830 -1315 0zm1403 -2950c0,487 54,860 161,1116 104,258 256,453 451,587 196,133 403,200 618,200 311,0 574,-141 795,-425 219,-284 330,-731 330,-1345 0,-645 -111,-1111 -334,-1398 -221,-287 -503,-431 -846,-431 -325,0 -603,139 -833,417 -227,278 -342,705 -342,1279zm4522 867l0 -1494 2769 0 0 1494 -2769 0zm3771 2083l0 -7808 1415 0 0 2806c215,-263 453,-460 710,-592 259,-131 537,-197 833,-197 627,0 1157,247 1591,742 432,494 650,1223 650,2187 0,961 -222,1699 -664,2217 -443,518 -965,776 -1562,776 -305,0 -606,-82 -902,-247 -297,-164 -549,-402 -756,-714l0 830 -1315 0zm1403 -2950c0,487 54,860 161,1116 104,258 256,453 451,587 196,133 403,200 618,200 311,0 574,-141 795,-425 219,-284 330,-731 330,-1345 0,-645 -111,-1111 -334,-1398 -221,-287 -503,-431 -846,-431 -325,0 -603,139 -833,417 -227,278 -342,705 -342,1279zm6000 -987l-1277 -229c154,-578 409,-992 766,-1245 355,-252 866,-380 1534,-380 595,0 1048,73 1362,218 313,146 536,344 672,595 134,251 200,707 200,1368l-12 1749c0,491 23,856 67,1096 44,240 125,495 246,765l-1391 0 -183 -618c-240,249 -499,437 -775,562 -275,125 -568,187 -879,187 -518,0 -943,-152 -1273,-456 -332,-305 -497,-709 -497,-1214 0,-322 66,-600 202,-840 136,-238 326,-429 570,-571 247,-142 639,-269 1180,-378 653,-132 1111,-254 1367,-369 0,-312 -25,-518 -77,-616 -50,-96 -144,-176 -280,-240 -135,-62 -327,-93 -576,-93 -253,0 -451,49 -595,149 -144,100 -261,286 -351,560zm1879 1211c-179,63 -461,140 -841,225 -439,100 -725,211 -860,331 -136,122 -203,280 -203,473 0,216 75,400 224,549 150,147 338,221 563,221 201,0 399,-60 595,-180 197,-120 332,-261 410,-425 75,-164 112,-462 112,-894l0 -300zm4122 2726l-1416 0 0 -5660 1316 0 0 804c225,-377 425,-626 603,-749 177,-124 382,-186 614,-186 323,0 630,95 925,282l-441 1305c-234,-164 -453,-245 -662,-245 -196,0 -369,63 -520,189 -148,127 -256,354 -321,685 -65,331 -98,940 -98,1825l0 1750zm3994 0l-1416 0 0 -5660 1316 0 0 804c225,-377 426,-626 603,-749 177,-124 382,-186 614,-186 323,0 630,95 925,282l-441 1305c-234,-164 -453,-245 -662,-245 -196,0 -369,63 -520,189 -148,127 -256,354 -321,685 -65,331 -98,940 -98,1825l0 1750zm5735 -1799l1403 251c-188,569 -480,990 -877,1267 -397,274 -879,412 -1447,412 -789,0 -1396,-229 -1827,-689 -507,-532 -759,-1279 -759,-2239 0,-947 254,-1705 764,-2274 432,-480 991,-720 1676,-720 762,0 1359,246 1792,736 499,562 747,1391 747,2485l-6 171 -3533 0c8,447 123,794 349,1040 223,245 493,367 808,367 455,0 758,-269 910,-807zm75 -1516c-12,-442 -121,-774 -325,-996 -205,-224 -447,-335 -731,-335 -299,0 -549,117 -754,348 -209,234 -311,563 -307,983l2117 0zm2543 3315l0 -7808 1416 0 0 7808 -1416 0zm2844 0l0 -1494 1403 0 0 1494 -1403 0zm7516 -3980l-1390 261c-103,-596 -424,-894 -967,-894 -349,0 -631,127 -844,384 -212,256 -319,689 -319,1297 0,673 107,1147 319,1426 211,278 495,416 850,416 265,0 485,-80 656,-238 171,-159 294,-440 367,-842l1391 251c-286,1367 -1107,2050 -2464,2050 -866,0 -1509,-289 -1929,-865 -420,-576 -631,-1269 -631,-2079 0,-971 238,-1711 714,-2218 477,-507 1099,-760 1871,-760 624,0 1134,146 1528,435 393,289 677,747 848,1376zm727 1070c0,-554 127,-1059 380,-1516 252,-454 582,-796 989,-1023 409,-227 867,-342 1378,-342 856,0 1529,293 2017,878 491,585 735,1269 735,2051 0,583 -127,1110 -382,1579 -255,469 -589,823 -1004,1060 -414,236 -867,354 -1359,354 -792,0 -1449,-263 -1971,-789 -522,-527 -783,-1277 -783,-2252zm1440 80c0,573 130,1005 387,1300 258,293 570,440 935,440 357,0 662,-147 916,-444 253,-294 380,-730 380,-1307 0,-561 -129,-990 -386,-1285 -259,-296 -568,-443 -929,-443 -357,0 -662,147 -919,443 -256,295 -384,727 -384,1296zm5061 -2830l1315 0 0 773c232,-302 487,-529 765,-678 277,-151 578,-226 900,-226 342,0 638,75 889,224 251,149 457,374 616,676 236,-302 491,-527 760,-676 271,-149 559,-224 866,-224 364,0 677,77 940,227 263,151 461,368 599,648 136,281 205,712 205,1296l0 3620 -1416 0 0 -3237c0,-565 -58,-941 -173,-1129 -115,-187 -307,-280 -579,-280 -315,0 -570,131 -762,393 -194,260 -290,773 -290,1532l0 2721 -1415 0 0 -3104c0,-615 -40,-1013 -117,-1189 -101,-234 -307,-353 -616,-353 -209,0 -401,60 -576,182 -176,120 -301,298 -378,531 -78,233 -117,627 -117,1181l0 2752 -1416 0 0 -5660zm9233 5660l0 -1494 1403 0 0 1494 -1403 0zm6376 0l0 -849c-196,308 -453,548 -770,720 -318,173 -650,260 -996,260 -351,0 -664,-80 -942,-240 -278,-160 -484,-387 -620,-683 -136,-295 -205,-724 -205,-1285l0 -3583 1416 0 0 2599c0,744 21,1215 65,1416 41,200 135,357 282,466 146,111 323,165 530,165 236,0 453,-73 653,-216 199,-144 330,-329 393,-555 62,-225 94,-721 94,-1488l0 -2387 1415 0 0 5660 -1315 0zm3833 -3937l-1277 -229c154,-578 409,-992 766,-1245 355,-252 866,-380 1534,-380 595,0 1048,73 1361,218 314,146 537,344 673,595 133,251 200,707 200,1368l-12 1749c0,491 23,856 67,1096 43,240 125,495 246,765l-1391 0 -183 -618c-240,249 -499,437 -775,562 -275,125 -568,187 -879,187 -518,0 -944,-152 -1273,-456 -332,-305 -497,-709 -497,-1214 0,-322 66,-600 202,-840 136,-238 326,-429 570,-571 246,-142 639,-269 1180,-378 653,-132 1110,-254 1367,-369 0,-312 -25,-518 -77,-616 -50,-96 -144,-176 -280,-240 -135,-62 -327,-93 -576,-93 -253,0 -451,49 -595,149 -144,100 -261,286 -351,560zm1879 1211c-179,63 -461,140 -841,225 -439,100 -725,211 -860,331 -136,122 -203,280 -203,473 0,216 75,400 224,549 150,147 338,221 563,221 201,0 399,-60 595,-180 197,-120 332,-261 410,-425 75,-164 112,-462 112,-894l0 -300z"/>
   <g>
    <g style="clip-path:url(#id0)">
     <image x="1109" y="-585" width="169525" height="30658" xlink:href="logo_txt_Images\logo_txt_ImgID1.png"/>
    </g>
   </g>
   <g>
    <path class="fil0" d="M1918 9903l7509 -783c2046,-214 3503,-202 4372,39 868,237 1629,738 2284,1502 660,764 1044,1664 1153,2705 99,958 -55,1848 -458,2671 -408,829 -981,1464 -1718,1915 1136,228 2058,725 2767,1493 708,768 1127,1744 1252,2938 151,1448 -120,2711 -819,3790 -693,1082 -1575,1796 -2640,2146 -743,241 -2493,508 -5257,796l-6372 665 -2073 -19877zm4107 2911l481 4608 2508 -261c1504,-157 2432,-277 2783,-361 639,-155 1119,-449 1446,-871 326,-422 452,-964 383,-1625 -61,-593 -260,-1054 -596,-1388 -336,-339 -721,-528 -1156,-576 -429,-45 -1651,36 -3654,245l-2195 229zm825 7912l553 5302 3519 -367c1541,-160 2522,-333 2949,-518 421,-189 759,-500 1013,-943 256,-438 350,-976 284,-1606 -68,-652 -283,-1167 -646,-1555 -362,-383 -812,-631 -1355,-733 -542,-103 -1624,-70 -3250,100l-3067 320zm17646 -3216l-3313 -244c240,-1512 778,-2634 1620,-3372 836,-738 2104,-1198 3805,-1375 1515,-158 2687,-93 3523,194 836,287 1457,732 1869,1334 407,603 698,1747 874,3431l432 4454c131,1250 286,2174 461,2773 176,599 450,1225 831,1882l-3540 369 -632 -1524c-545,698 -1154,1243 -1822,1636 -668,392 -1396,627 -2188,709 -1318,138 -2443,-138 -3363,-823 -926,-689 -1453,-1672 -1587,-2958 -86,-819 11,-1545 292,-2192 283,-642 715,-1178 1300,-1604 589,-426 1554,-854 2902,-1276 1628,-511 2760,-942 3383,-1302 -83,-796 -201,-1312 -360,-1548 -153,-232 -414,-411 -776,-537 -362,-121 -859,-148 -1492,-82 -643,67 -1134,244 -1475,537 -340,293 -588,796 -744,1518zm5105 2583c-440,209 -1138,479 -2082,797 -1090,371 -1788,729 -2102,1070 -313,346 -441,767 -390,1257 58,551 298,998 714,1338 422,335 920,475 1494,415 511,-53 999,-259 1467,-616 468,-358 776,-755 929,-1192 148,-436 164,-1205 49,-2306l-79 -763zm12486 -8852l316 3026 -2456 256 607 5816c132,1263 245,1986 340,2177 182,351 498,500 944,453 330,-34 796,-204 1392,-514l622 2928c-789,466 -1710,754 -2762,864 -914,95 -1668,-18 -2260,-340 -587,-327 -1016,-834 -1277,-1532 -198,-508 -384,-1569 -553,-3183l-656 -6293 -1658 173 -316 -3026 1658 -173 -298 -2859 3372 -2597 530 5080 2455 -256zm5520 -6104l761 7292c493,-781 1069,-1389 1717,-1816 654,-429 1385,-687 2193,-772 1078,-112 2008,43 2782,463 781,424 1369,1073 1779,1957 298,647 528,1773 696,3383l883 8458 -3604 376 -794 -7615c-184,-1768 -427,-2856 -734,-3273 -423,-559 -1066,-796 -1932,-706 -919,96 -1598,494 -2041,1195 -442,701 -571,1936 -386,3712l753 7223 -3603 376 -2073 -19877 3603 -376z"/>
    <path class="fil0" d="M84635 21521l-2191 2964c-1063,-554 -2094,-1326 -3083,-2317 -785,754 -1608,1293 -2469,1623 -860,331 -1859,498 -2997,498 -2266,0 -3944,-600 -5034,-1795 -1090,-1201 -1635,-2545 -1635,-4034 0,-2568 1427,-4605 4286,-6112 -1299,-1596 -1945,-3057 -1945,-4383 0,-1279 481,-2321 1442,-3126 962,-804 2239,-1205 3832,-1205 1538,0 2789,419 3756,1261 967,842 1453,1935 1453,3280 0,860 -240,1656 -726,2377 -487,721 -1390,1526 -2704,2405l2618 3652c289,-558 556,-1317 796,-2270l3255 795c-503,1945 -1042,3322 -1625,4122 396,391 914,828 1555,1312 641,479 1112,800 1416,953zm-9848 -10848l989 -796c732,-590 1100,-1172 1100,-1744 0,-530 -181,-958 -550,-1293 -369,-331 -834,-498 -1389,-498 -545,0 -989,144 -1331,433 -342,293 -513,646 -513,1060 0,479 273,1056 818,1726l876 1112zm-1400 4126c-801,437 -1416,968 -1838,1591 -422,619 -636,1270 -636,1954 0,851 262,1530 791,2033 529,507 1208,758 2036,758 1074,0 2191,-507 3340,-1526l-3693 -4810z"/>
    <path class="fil0" d="M95409 4815l7528 580c2051,159 3482,432 4293,826 811,389 1470,1018 1977,1888 512,870 727,1824 647,2868 -74,960 -386,1809 -930,2546 -551,741 -1229,1263 -2035,1574 1076,428 1894,1084 2453,1967 559,883 795,1918 703,3115 -112,1451 -606,2645 -1487,3580 -877,941 -1872,1484 -2983,1637 -774,103 -2544,51 -5314,-163l-6388 -492 1536 -19926zm3516 3603l-356 4619 2515 194c1508,116 2442,165 2802,146 657,-38 1182,-240 1579,-597 397,-356 619,-867 670,-1530 46,-593 -67,-1083 -337,-1472 -269,-394 -614,-649 -1033,-775 -414,-121 -1631,-261 -3639,-416l-2201 -169zm-611 7931l-410 5315 3527 272c1545,119 2541,126 2994,21 448,-110 837,-355 1167,-745 330,-385 520,-898 568,-1529 51,-654 -68,-1200 -355,-1646 -288,-442 -686,-767 -1201,-965 -516,-199 -1586,-360 -3216,-486l-3074 -237zm17937 11l-3216 -836c508,-1445 1240,-2452 2200,-3026 956,-575 2286,-799 3991,-668 1518,117 2660,392 3430,824 771,433 1302,982 1599,1649 292,667 373,1844 242,3532l-375 4460c-97,1252 -110,2189 -46,2810 65,621 223,1286 479,2001l-3549 -274 -347 -1613c-662,588 -1359,1015 -2087,1281 -728,266 -1486,366 -2280,305 -1321,-102 -2378,-575 -3160,-1415 -787,-844 -1128,-1906 -1029,-3196 63,-821 288,-1517 682,-2103 393,-581 915,-1030 1567,-1344 656,-313 1683,-561 3084,-733 1694,-210 2884,-431 3562,-672 62,-798 38,-1327 -76,-1588 -109,-256 -333,-478 -666,-667 -335,-185 -819,-301 -1453,-350 -644,-50 -1160,36 -1547,263 -388,227 -722,677 -1005,1360zm4556 3458c-470,127 -1205,267 -2191,410 -1138,169 -1890,396 -2260,675 -370,284 -572,674 -610,1166 -42,552 113,1035 462,1445 355,405 820,632 1395,676 512,40 1030,-74 1554,-342 524,-267 898,-602 1128,-1005 224,-402 378,-1155 463,-2259l59 -766zm9981 7768l-3612 -278 1113 -14443 3356 258 -158 2050c650,-915 1210,-1511 1687,-1792 478,-280 1012,-398 1603,-352 826,63 1591,365 2305,900l-1381 3244c-564,-463 -1108,-715 -1640,-756 -501,-39 -956,89 -1364,380 -404,295 -725,854 -956,1685 -230,832 -435,2379 -609,4638l-344 4466zm10192 786l-3613 -279 1114 -14443 3356 259 -158 2050c650,-916 1210,-1512 1687,-1792 477,-281 1012,-398 1603,-353 826,64 1590,365 2305,901l-1381 3244c-565,-464 -1108,-716 -1641,-757 -501,-38 -955,90 -1364,380 -403,296 -725,854 -955,1686 -230,831 -435,2378 -609,4637l-344 4467zm14988 -3464l3531 916c-591,1415 -1420,2433 -2486,3060 -1067,623 -2325,880 -3774,769 -2013,-156 -3519,-859 -4526,-2118 -1190,-1458 -1687,-3414 -1499,-5863 187,-2417 986,-4301 2397,-5652 1198,-1140 2673,-1642 4420,-1507 1945,150 3420,893 4426,2231 1163,1531 1634,3695 1419,6487l-50 435 -9014 -695c-66,1143 158,2051 685,2722 522,670 1185,1033 1990,1095 1161,90 1987,-537 2481,-1880zm490 -3853c55,-1130 -156,-2000 -635,-2606 -478,-611 -1074,-942 -1799,-997 -761,-59 -1424,188 -1991,737 -579,558 -905,1377 -977,2449l5402 417zm5837 8960l1536 -19926 3612 279 -1535 19925 -3613 -278z"/>
   </g>
  </g>
 </g>
</svg>
